<svg width="39" height="44" viewBox="0 0 39 44" fill="none" xmlns="http://www.w3.org/2000/svg">
<path d="M19.5 8.66668C18.3083 8.66668 17.2886 8.24274 16.4407 7.39485C15.5928 6.54696 15.1681 5.52646 15.1667 4.33335C15.1652 3.14024 15.5899 2.12046 16.4407 1.27401C17.2914 0.42757 18.3112 0.00290353 19.5 1.46396e-05C20.6888 -0.00287425 21.7093 0.421792 22.5615 1.27401C23.4137 2.12624 23.8377 3.14601 23.8333 4.33335C23.829 5.52068 23.4051 6.54118 22.5615 7.39485C21.7179 8.24851 20.6974 8.67246 19.5 8.66668ZM13 43.3334V15.1667H0V10.8333H39V15.1667H26V43.3334H21.6667V30.3333H17.3333V43.3334H13Z" fill="white"/>
</svg>
