<svg width="103" height="103" viewBox="0 0 103 103" fill="none" xmlns="http://www.w3.org/2000/svg">
<path d="M51.5 2C38.3718 2 25.7813 7.21516 16.4982 16.4982C7.21516 25.7813 2 38.3718 2 51.5C2 64.6282 7.21516 77.2187 16.4982 86.5018C25.7813 95.7848 38.3718 101 51.5 101C64.6282 101 77.2187 95.7848 86.5018 86.5018C95.7848 77.2187 101 64.6282 101 51.5C101 38.3718 95.7848 25.7813 86.5018 16.4982C77.2187 7.21516 64.6282 2 51.5 2ZM51.5 93.9286V9.07143C57.0718 9.07143 62.589 10.1689 67.7367 12.3011C72.8844 14.4333 77.5617 17.5586 81.5015 21.4985C85.4414 25.4383 88.5667 30.1156 90.6989 35.2633C92.8311 40.411 93.9286 45.9282 93.9286 51.5C93.9286 57.0718 92.8311 62.589 90.6989 67.7367C88.5667 72.8844 85.4414 77.5617 81.5015 81.5015C77.5617 85.4414 72.8844 88.5667 67.7367 90.6989C62.589 92.8311 57.0718 93.9286 51.5 93.9286Z" fill="white" stroke="white" stroke-width="3"/>
</svg>
