<svg width="94" height="75" viewBox="0 0 94 75" fill="none" xmlns="http://www.w3.org/2000/svg">
<path d="M56.7502 37.2597C55.9199 36.42 54.8899 36.0001 53.6604 36.0001L19.3396 36.0001C18.1101 35.9942 17.0801 36.4127 16.2498 37.2554C15.4195 38.0981 15.0029 39.1376 15 40.3739C14.9971 41.6103 15.4123 42.6483 16.2455 43.4881C17.0787 44.3279 18.1101 44.7478 19.3396 44.7478L53.6604 44.7478C54.8842 44.7478 55.9141 44.3279 56.7502 43.4881C57.5863 42.6484 58.0029 41.6103 58 40.3739C57.9971 39.1376 57.5805 38.0995 56.7502 37.2597Z" fill="white"/>
<path d="M56.7502 51.5119C55.9199 50.6721 54.8899 50.2523 53.6604 50.2523L19.6136 50.2522C18.3841 50.2464 17.3541 50.6648 16.5238 51.5075C15.6935 52.3502 15.2769 53.3898 15.274 54.6261C15.2711 55.8625 15.6863 56.9005 16.5195 57.7403C17.3527 58.5801 18.3841 59 19.6136 59L53.6604 59C54.8842 59 55.9141 58.5801 56.7502 57.7403C57.5863 56.9005 58.0029 55.8625 58 54.6261C57.9971 53.3898 57.5805 52.3517 56.7502 51.5119Z" fill="white"/>
<rect x="89" y="69" width="84" height="13" transform="rotate(-180 89 69)" fill="white"/>
<rect x="87" y="28" width="81" height="23" transform="rotate(-180 87 28)" fill="white"/>
<rect x="89.6897" y="4.31034" width="66.3793" height="85.3793" rx="5.17241" transform="rotate(90 89.6897 4.31034)" stroke="white" stroke-width="8.62069"/>
</svg>
