<svg width="104" height="104" viewBox="0 0 104 104" fill="none" xmlns="http://www.w3.org/2000/svg">
<path d="M9.90476 104C7.18095 104 4.85003 103.019 2.912 101.056C0.973969 99.0929 0.00330159 96.7305 0 93.9685V13.7166C0 10.9579 0.970667 8.59715 2.912 6.63432C4.85333 4.67149 7.18425 3.6884 9.90476 3.68506H39.619C41.0222 3.68506 42.1992 4.16657 43.1501 5.12959C44.101 6.09262 44.5747 7.28302 44.5714 8.70081C44.5681 10.1186 44.0927 11.3107 43.1451 12.277C42.1976 13.2434 41.0222 13.7232 39.619 13.7166H9.90476V93.9685H64.381V88.9527C64.381 87.5316 64.8564 86.3412 65.8072 85.3815C66.7581 84.4219 67.9335 83.9403 69.3333 83.937C70.7332 83.9337 71.9102 84.4152 72.8644 85.3815C73.8185 86.3479 74.2923 87.5383 74.2857 88.9527V93.9685C74.2857 96.7272 73.3167 99.0896 71.3787 101.056C69.4406 103.022 67.1081 104.003 64.381 104H9.90476ZM24.7619 83.937C23.3587 83.937 22.1834 83.4555 21.2358 82.4925C20.2883 81.5294 19.8128 80.339 19.8095 78.9213C19.8062 77.5035 20.2817 76.3131 21.2358 75.35C22.19 74.387 23.3653 73.9055 24.7619 73.9055H49.5238C50.927 73.9055 52.104 74.387 53.0549 75.35C54.0057 76.3131 54.4795 77.5035 54.4762 78.9213C54.4729 80.339 53.9975 81.5311 53.0499 82.4975C52.1024 83.4638 50.927 83.9437 49.5238 83.937H24.7619ZM24.7619 68.8898C23.3587 68.8898 22.1834 68.4083 21.2358 67.4452C20.2883 66.4822 19.8128 65.2918 19.8095 63.874C19.8062 62.4562 20.2817 61.2658 21.2358 60.3028C22.19 59.3398 23.3653 58.8583 24.7619 58.8583H39.619C41.0222 58.8583 42.1992 59.3398 43.1501 60.3028C44.101 61.2658 44.5747 62.4562 44.5714 63.874C44.5681 65.2918 44.0927 66.4839 43.1451 67.4502C42.1976 68.4166 41.0222 68.8965 39.619 68.8898H24.7619ZM37.1429 48.8268C35.0794 48.8268 33.3262 48.0962 31.8834 46.6349C30.4406 45.1736 29.7176 43.3964 29.7143 41.3032V31.2717C29.7143 29.1818 30.4373 27.4062 31.8834 25.9449C33.3295 24.4837 35.0827 23.7514 37.1429 23.748H44.5714L55.9619 12.2118C56.3746 11.7938 56.8913 11.4377 57.512 11.1435C58.1327 10.8492 58.7716 10.7038 59.4286 10.7071C60.8317 10.7071 62.0088 11.2087 62.9596 12.2118C63.9105 13.215 64.3843 14.4271 64.381 15.8482V56.7266C64.381 58.1477 63.9055 59.3598 62.9547 60.363C62.0038 61.3661 60.8284 61.8677 59.4286 61.8677C58.7683 61.8677 58.1294 61.7223 57.512 61.4313C56.8946 61.1404 56.3779 60.7843 55.9619 60.363L44.5714 48.8268H37.1429ZM84.1905 36.2874C84.1905 39.0461 83.654 41.6793 82.581 44.1872C81.5079 46.6951 79.981 48.9104 78 50.8331C77.3397 51.5018 76.5556 51.6272 75.6476 51.2093C74.7397 50.7913 74.2857 50.0389 74.2857 48.9522V23.6227C74.2857 22.6195 74.7397 21.8889 75.6476 21.4308C76.5556 20.9727 77.3397 21.0763 78 21.7417C79.981 23.6644 81.5079 25.8797 82.581 28.3876C83.654 30.8955 84.1905 33.5288 84.1905 36.2874ZM94.0952 36.2874C94.0952 30.7701 92.7135 25.6707 89.9501 20.9894C87.1867 16.308 83.4097 12.6298 78.6191 9.95474C77.381 9.28598 76.5143 8.30456 76.0191 7.0105C75.5238 5.71644 75.5238 4.44076 76.0191 3.18348C76.5143 1.84595 77.4024 0.906336 78.6834 0.364635C79.9644 -0.177065 81.1811 -0.115205 82.3333 0.550218C89.0191 4.06124 94.3016 8.99339 98.181 15.3467C102.06 21.6999 104 28.6802 104 36.2874C104 43.8946 102.06 50.8749 98.181 57.2282C94.3016 63.5814 89.0191 68.5136 82.3333 72.0246C81.1778 72.6934 79.9611 72.7569 78.6834 72.2152C77.4057 71.6735 76.5176 70.7322 76.0191 69.3913C75.5238 68.1374 75.5238 66.8634 76.0191 65.5693C76.5143 64.2753 77.381 63.2922 78.6191 62.6201C83.4064 59.945 87.1834 56.2668 89.9501 51.5854C92.7168 46.9041 94.0985 41.8047 94.0952 36.2874Z" fill="white"/>
</svg>
